# xmcd
#
# Track frame offsets: 
#        150
#        14586
#        31942
#        48889
#        66738
#        78696
#        92894
#        108478
#        121551
#        133203
#        152990
#        174657
#        189694
#        206794
#        226870
#        244898
#        260519
#        278180
#        296313
#        315878
#        326780
#
# Disc length: 4616 seconds
#
# Revision: 0
# Processed by: cddbd v1.5.2PL0 Copyright (c) Steve Scherf et al.
# Submitted via: ExactAudioCopy v1.2
#
DISCID=37120615
DTITLE=Henry Townsend - "Mule" [Expanded Edition]
DYEAR=2018
DGENRE=Blues
TTITLE0=Bad Luck Dice
TTITLE1=Nothing But Trouble
TTITLE2=Things Have Changed
TTITLE3=The Old Man's Soul
TTITLE4=The Old Man's Soul
TTITLE5=It's a Hard Road To Travel
TTITLE6=Talkin' Guitar Blues
TTITLE7=I'm Just an Ordinary Man
TTITLE8=Alley Strut
TTITLE9=Can't You See
TTITLE10=Can't You See
TTITLE11=The Train Is At the Station
TTITLE12=The Train Is At the Station
TTITLE13=The Other Night (Bonus Track)
TTITLE14=Broken Home Blues (Bonus Track)
TTITLE15=Going Back To My Baby (Bonus Track)
TTITLE16=Nice and Kind (Bonus Track)
TTITLE17=Goin' Back Down South (Bonus Track)
TTITLE18=Turned On and Off (Bonus Track)
TTITLE19=Look Over Yonder (Bonus Track)
TTITLE20=Since You've Come Back Home (Bonus Track)
EXTD=
EXTT0=
EXTT1=
EXTT2=
EXTT3=
EXTT4=
EXTT5=
EXTT6=
EXTT7=
EXTT8=
EXTT9=
EXTT10=
EXTT11=
EXTT12=
EXTT13=
EXTT14=
EXTT15=
EXTT16=
EXTT17=
EXTT18=
EXTT19=
EXTT20=
PLAYORDER=
